<svg id="a4f54679-21d8-46c2-96eb-fe86fe4acc1f" data-name="Layer 1" xmlns="http://www.w3.org/2000/svg" width="679.40016" height="774.77805" viewBox="0 0 679.40016 774.77805"><path d="M939.70008,235.55823H935.7013V126.01289A63.40185,63.40185,0,0,0,872.2995,62.611H640.21277a63.40184,63.40184,0,0,0-63.402,63.40172V726.98711A63.40185,63.40185,0,0,0,640.21259,790.389H872.2992a63.40186,63.40186,0,0,0,63.402-63.40167V313.53447h3.99884Z" transform="translate(-260.29992 -62.61098)" fill="#e6e6e6"/><path d="M874.85755,79.106h-30.295a22.49485,22.49485,0,0,1-20.82715,30.99052H690.77594A22.4948,22.4948,0,0,1,669.9488,79.10592H641.6532a47.34781,47.34781,0,0,0-47.34784,47.34774V726.54625a47.34781,47.34781,0,0,0,47.34778,47.34784H874.85755a47.34781,47.34781,0,0,0,47.34784-47.34778h0V126.4537A47.34777,47.34777,0,0,0,874.85755,79.106Z" transform="translate(-260.29992 -62.61098)" fill="#fff"/><path id="a2804879-ded6-4045-b20f-1f1dde9b938b" data-name="Path 39" d="M902.9622,550.42982h-279.619a5.184,5.184,0,0,1-5.178-5.178v-69.361a5.184,5.184,0,0,1,5.178-5.178h279.619a5.184,5.184,0,0,1,5.178,5.178v69.362A5.184,5.184,0,0,1,902.9622,550.42982Zm-279.619-77.646a3.11,3.11,0,0,0-3.107,3.107v69.362a3.11,3.11,0,0,0,3.107,3.107h279.619a3.11,3.11,0,0,0,3.107-3.107v-69.362a3.11,3.11,0,0,0-3.107-3.107Z" transform="translate(-260.29992 -62.61098)" fill="#e6e6e6"/><circle id="b9ad11c9-d8a0-4df6-8741-900b9ec46a35" data-name="Ellipse 5" cx="399.28928" cy="447.95988" r="21.748" fill="#e6e6e6"/><path id="bd261eec-7ae0-49b0-bf26-57ff03972605" data-name="Path 40" d="M709.81719,496.07284a3.625,3.625,0,0,0,0,7.249h170.878a3.625,3.625,0,1,0,.119-7.249q-.0595-.001-.119,0Z" transform="translate(-260.29992 -62.61098)" fill="#e6e6e6"/><path id="e80b4447-8c34-435b-ba6c-5300a190ab24" data-name="Path 41" d="M709.81719,517.82084a3.625,3.625,0,0,0,0,7.249h170.878a3.625,3.625,0,1,0,.119-7.249q-.0595-.001-.119,0Z" transform="translate(-260.29992 -62.61098)" fill="#e6e6e6"/><path id="e55fcb7d-3a3b-45d8-b167-72fb2263dd92" data-name="Path 42" d="M902.9622,666.41982h-279.619a5.184,5.184,0,0,1-5.178-5.178v-69.361a5.184,5.184,0,0,1,5.178-5.178h279.619a5.184,5.184,0,0,1,5.178,5.178v69.362A5.184,5.184,0,0,1,902.9622,666.41982Zm-279.619-77.646a3.11,3.11,0,0,0-3.107,3.107v69.362a3.11,3.11,0,0,0,3.107,3.107h279.619a3.11,3.11,0,0,0,3.107-3.107v-69.362a3.11,3.11,0,0,0-3.107-3.107Z" transform="translate(-260.29992 -62.61098)" fill="#e6e6e6"/><circle id="a50d232f-7710-43e4-8fa9-6ef0443fc454" data-name="Ellipse 6" cx="399.28928" cy="563.94987" r="21.748" fill="#e6e6e6"/><path id="e49b4965-a9e9-4371-9134-194e44e65c31" data-name="Path 43" d="M709.81719,612.06284a3.625,3.625,0,0,0,0,7.249h170.878a3.625,3.625,0,1,0,.119-7.249q-.0595-.001-.119,0Z" transform="translate(-260.29992 -62.61098)" fill="#e6e6e6"/><path id="abc4586a-ac92-4255-aae6-84f53baad571" data-name="Path 44" d="M709.81719,633.81084a3.625,3.625,0,0,0,0,7.249h170.878a3.625,3.625,0,1,0,.119-7.249q-.0595-.001-.119,0Z" transform="translate(-260.29992 -62.61098)" fill="#e6e6e6"/><polygon points="408.089 281.643 406.675 280.228 444.12 242.783 468.903 267.565 517.903 218.565 533.903 234.565 577.56 190.908 578.974 192.322 533.903 237.393 517.903 221.393 468.903 270.393 444.12 245.611 408.089 281.643" fill="#3578e5"/><path id="a9e593af-a319-4e97-9065-f0c2c04624d5" data-name="Path 45" d="M757.2682,406.49485a98.343,98.343,0,0,1-98.384-98.302v-.082c0-.206,0-.423.012-.629.3-53.879,44.432-97.756,98.372-97.756a98.384,98.384,0,0,1,.02237,196.768h-.02237Zm0-194.7a96.519,96.519,0,0,0-96.3,95.749c-.011.22-.011.4-.011.564a96.325,96.325,0,1,0,96.337-96.313Z" transform="translate(-260.29992 -62.61098)" fill="#e6e6e6"/><path d="M389.44131,310.15073s5.26368,24.21285-12.63279,33.68745c0,0,4.21093,53.68929,31.582,54.74209s27.371-28.42378,27.371-28.42378l-4.21094-15.791s-20.00191-11.58-7.36912-33.68744Z" transform="translate(-260.29992 -62.61098)" fill="#feb8b8"/><circle cx="151.77515" cy="211.22047" r="49.47842" fill="#2f2e41"/><polygon points="99.665 360.182 99.665 419.135 187.042 415.977 180.725 358.077 99.665 360.182" fill="#feb8b8"/><circle cx="152.30152" cy="232.80147" r="31.58197" fill="#feb8b8"/><path d="M373.65033,343.83815s-17.89642-3.15821-24.21285,0-13.68554,2.10546-21.05466,32.63471L314.69724,439.6368s-2.10546,18.94917,13.68558,16.84371S343.12105,427.004,343.12105,427.004l10.52731-24.21285,18.94922-21.05463Z" transform="translate(-260.29992 -62.61098)" fill="#feb8b8"/><path d="M433.65608,356.471s25.2656,3.15821,27.371,16.84373-9.47461,69.48034-9.47461,69.48034l-17.89643-17.89646,9.47461-34.74015Z" transform="translate(-260.29992 -62.61098)" fill="#feb8b8"/><path d="M368.91305,343.31177l.52635,19.47555-14.73824,31.582,6.46717,82.23574,86.78564,1.77113-5.876-62.95224s11.58005-14.73826,5.26368-27.371S436.288,355.94455,436.288,355.94455l-8.42187-5.26366S442.078,383.842,412.60147,378.5783s-31.05562-38.42474-31.05562-38.42474Z" transform="translate(-260.29992 -62.61098)" fill="#e6e6e6"/><path d="M344.1738,555.43737l-14.73824,83.16586L312.59183,759.66742,305.22271,773.353l6.3164,13.68555,17.89645-8.42187,7.36918-32.63472s25.26559-30.52922,21.05466-69.48036l45.26746-108.4314Z" transform="translate(-260.29992 -62.61098)" fill="#feb8b8"/><path d="M416.81235,563.85924,427.33966,667.027s-2.10544,28.42378,4.21093,53.68933,10.5273,69.48036,10.5273,69.48036h21.05467l-4.21093-129.48606L472.60717,555.4374Z" transform="translate(-260.29992 -62.61098)" fill="#feb8b8"/><path d="M402.07411,469.1133s-44.21476-3.15818-44.21476,2.10547V481.7461s-8.42187,13.68552-7.36912,26.31832S301.19847,610.09093,327.51676,622.7237s55.84055,22.80785,61.10417,18.59692,22.92774-87.98871,22.92774-87.98871-.52191,91.3638,8.9527,92.41655,79.70109,9.47459,79.70109,0S445.217,459.11221,445.217,459.11221,414.70691,470.16605,402.07411,469.1133Z" transform="translate(-260.29992 -62.61098)" fill="#2f2e41"/><path d="M310.48639,774.40572s-4.21093-7.36912-8.42186-2.10544-20.00192,17.89642-20.00192,17.89642S243.11152,800.724,269.42984,816.515c0,0,23.1601,0,32.63469-7.36912s18.94917-4.21093,18.94917-4.21093,14.73824-1.05275,15.791-7.36912-5.51485-27.1611-5.51485-27.1611S324.17188,779.6694,310.48639,774.40572Z" transform="translate(-260.29992 -62.61098)" fill="#2f2e41"/><path d="M450.49981,780.72209s-12.63279-3.15819-12.63279,0-17.89643,22.10736-3.15819,30.52922,16.84373,6.31637,17.89642,14.73824S481.029,840.72779,485.24,835.46416s7.36912-14.73824,2.10544-18.94917-22.10736-30.52922-22.10736-35.79285S450.49981,780.72209,450.49981,780.72209Z" transform="translate(-260.29992 -62.61098)" fill="#2f2e41"/><rect x="145.36357" y="350.12234" width="2.85583" height="15.79098" fill="#fff" opacity="0.1" style="isolation:isolate"/><path d="M455.76344,430.16222s-20.00192-26.31829-18.94917-7.36912,12.6328,28.42378,14.73824,28.42378S462.07987,449.11139,455.76344,430.16222Z" transform="translate(-260.29992 -62.61098)" fill="#feb8b8"/><path d="M359.96479,450.43571c1.57909.25477,26.84469-9.21981,26.84469-9.21981l15.791-2.10547-42.63567,17.83013Z" transform="translate(-260.29992 -62.61098)" opacity="0.1" style="isolation:isolate"/><circle cx="106.50764" cy="175.42757" r="14.73826" fill="#2f2e41"/><circle cx="197.04264" cy="171.21663" r="14.73826" fill="#2f2e41"/><path d="M441.5516,227.51123a14.73793,14.73793,0,0,1,13.15915-14.65112,14.73828,14.73828,0,1,0,0,29.30226A14.738,14.738,0,0,1,441.5516,227.51123Z" transform="translate(-260.29992 -62.61098)" fill="#2f2e41"/><path d="M350.33986,249.96a14.73792,14.73792,0,0,1-.85438-19.67457,14.73826,14.73826,0,1,0,20.50745,20.93A14.73793,14.73793,0,0,1,350.33986,249.96Z" transform="translate(-260.29992 -62.61098)" fill="#2f2e41"/><path d="M412.07507,250.67133c-17.44223,0-31.582,8.24818-31.582,18.42283,0,4.55256,2.8422,8.71331,7.53376,11.9277l6.0799-4.40528-1.65336,6.90142c.686.31791,1.38651.62563,2.11717.91l9.08269-10.59653v13.01784a53.01764,53.01764,0,0,0,8.42186.66766c17.44224,0,31.582-8.24817,31.582-18.42282S429.51731,250.67133,412.07507,250.67133Z" transform="translate(-260.29992 -62.61098)" fill="#2f2e41"/><path d="M442.60429,233.82762s-2.289,10.52733,12.01468,14.73825" transform="translate(-260.29992 -62.61098)" fill="#3578e5"/><path d="M380.4931,235.74368s5.26368,11.76945-10.5273,17.03312" transform="translate(-260.29992 -62.61098)" fill="#3578e5"/><path d="M408.10342,411.073a2.65961,2.65961,0,0,0-2.6567,2.6567v30.99487a2.65961,2.65961,0,0,0,2.6567,2.6567h54.01963a2.65961,2.65961,0,0,0,2.65671-2.6567V413.72972a2.65961,2.65961,0,0,0-2.65671-2.6567Z" transform="translate(-260.29992 -62.61098)" fill="#3578e5"/><path d="M456.36686,423.02818H413.85961a.88557.88557,0,1,1,0-1.77113h42.50725a.88557.88557,0,1,1,0,1.77113Z" transform="translate(-260.29992 -62.61098)" fill="#fff"/><path d="M456.36686,430.11272H413.85961a.88557.88557,0,1,1,0-1.77113h42.50725a.88557.88557,0,1,1,0,1.77113Z" transform="translate(-260.29992 -62.61098)" fill="#fff"/><path d="M456.36686,437.19727H413.85961a.88557.88557,0,0,1,0-1.77114h42.50725a.88557.88557,0,0,1,0,1.77114Z" transform="translate(-260.29992 -62.61098)" fill="#fff"/><path d="M327.33012,432.26768s8.42187-5.26365,25.2656-3.15821l32.63472-8.42187s30.52922-17.89645,42.10927,4.21094-43.16207,14.73832-43.16207,14.73832-36.84565,29.4765-58.953,13.68557Z" transform="translate(-260.29992 -62.61098)" fill="#feb8b8"/></svg>